<svg width="200" height="200" viewBox="0 0 200 200" fill="none" xmlns="http://www.w3.org/2000/svg">
<g clip-path="url(#clip0_16_39)">
<circle cx="100" cy="100" r="100" fill="#0079FC"/>
<path fill-rule="evenodd" clip-rule="evenodd" d="M156.603 46.6551L156.064 63.2567C148.811 50.8733 135.824 43.9563 119.869 43.9563C90.6896 43.9563 69.5054 67.5757 69.5054 100C69.5054 132.426 90.8247 156.044 119.869 156.044C135.824 156.044 148.844 149.127 156.064 136.846L156.603 153.311H183.791V46.6551H156.603ZM127.12 129.895C111.368 129.895 100.573 117.715 100.573 99.967C100.573 82.2193 111.368 70.0386 127.12 70.0386C142.874 70.0386 153.668 82.2193 153.668 99.967C153.668 117.715 142.84 129.895 127.12 129.895Z" fill="white"/>
</g>
<defs>
<clipPath id="clip0_16_39">
<rect width="200" height="200" fill="white"/>
</clipPath>
</defs>
</svg>
